<svg xmlns="http://www.w3.org/2000/svg" width="48" height="48"><style/><path id="Shape 7" d="M15.5 17.99h-1a2.5 2.5 0 01-2.5-2.5v-1a2.5 2.5 0 012.5-2.5h1a2.5 2.5 0 012.5 2.5v1a2.5 2.5 0 01-2.5 2.5zm-1-5c-.83 0-1.5.67-1.5 1.5v1c0 .83.67 1.5 1.5 1.5h1c.83 0 1.5-.67 1.5-1.5v-1c0-.83-.67-1.5-1.5-1.5h-1zm22.51 3h-16v-2h16v2zM15.5 28h-1c-1.38 0-2.5-1.13-2.5-2.5v-1a2.5 2.5 0 012.5-2.5h1a2.5 2.5 0 012.5 2.5v1c0 1.37-1.12 2.5-2.5 2.5zm-1-5c-.83 0-1.5.67-1.5 1.5v1c0 .82.67 1.5 1.5 1.5h1c.83 0 1.5-.68 1.5-1.5v-1c0-.83-.67-1.5-1.5-1.5h-1zm22.51 3h-16v-2h16v2zM15.5 38h-1a2.5 2.5 0 01-2.5-2.5v-1a2.5 2.5 0 012.5-2.5h1a2.5 2.5 0 012.5 2.5v1a2.5 2.5 0 01-2.5 2.5zm-1-5c-.83 0-1.5.67-1.5 1.5v1c0 .83.67 1.5 1.5 1.5h1c.83 0 1.5-.67 1.5-1.5v-1c0-.83-.67-1.5-1.5-1.5h-1zm22.51 3h-16v-2h16v2zM24.5 48C11.54 48 1 37.46 1 24.5S11.54 1 24.5 1 48 11.54 48 24.5 37.46 48 24.5 48zm0-46C12.09 2 2 12.09 2 24.5S12.09 47 24.5 47 47 36.91 47 24.5 36.91 2 24.5 2z" fill="#9e9e9e"/></svg>