<svg xmlns="http://www.w3.org/2000/svg" width="48" height="48"><style/><path id="icon" d="M34.85 9.31l-20.5 1.7c-.02 0-.03.01-.04.01h-.14c-.64 0-1.17.51-1.17 1.13v25.72c0 .63.53 1.13 1.17 1.13h.14c.01 0 .02.01.04.01l.09-.01H33.3c.65 0 1.17-.5 1.17-1.13v-.53l.38-.03c.63 0 1.14-.51 1.14-1.13V10.44c0-.62-.51-1.13-1.14-1.13zm-1.9 28.56c0 .07-.07.12-.15.12H14.17c-.08 0-.14-.05-.14-.12V12.15c0-.07.06-.12.14-.12H32.8c.08 0 .15.05.15.12v25.72zm2.02-1.69c0 .07-.06.12-.12.12h-.09l-.79.03V12.15c0-.62-.52-1.13-1.17-1.13h-5.9l7.97-.7c.06.01.1.06.1.12v25.74zM28.87 32H18.14c-.63 0-1.14.54-1.14 1.2v.6c0 .66.51 1.2 1.14 1.2h10.73c.63 0 1.14-.54 1.14-1.2v-.6c0-.66-.51-1.2-1.14-1.2zm.14 1.8c0 .11-.07.2-.14.2H18.14c-.07 0-.14-.09-.14-.2v-.6c0-.12.08-.2.14-.2h10.73c.06 0 .14.08.14.2v.6zM23.5 28a6.5 6.5 0 110-13 6.5 6.5 0 010 13zm0-12c-3.04 0-5.5 2.46-5.5 5.5s2.46 5.5 5.5 5.5 5.5-2.46 5.5-5.5-2.46-5.5-5.5-5.5zm1 32C11.54 48 1 37.46 1 24.5S11.54 1 24.5 1 48 11.54 48 24.5 37.46 48 24.5 48zm0-46C12.09 2 2 12.09 2 24.5S12.09 47 24.5 47 47 36.91 47 24.5 36.91 2 24.5 2z" fill="#9e9e9e"/></svg>