<svg xmlns="http://www.w3.org/2000/svg" width="48" height="48"><style/><path id="icon" d="M39.02 12.99H23.01v-2h16.01v2zm0 6H23.01v-2h16.01v2zm0 6.01H23.01v-2h16.01v2zm0 6h-29v-2h29v2zm0 6h-29v-2h29v2zM19 11.99c.55 0 1 .45 1 1v9c0 .55-.45 1-1 1h-7c-.56 0-1-.45-1-1v-9c0-.55.44-1 1-1h7m0-1h-7c-1.11 0-2 .89-2 2v9a2 2 0 002 2h7c1.1 0 2-.9 2-2v-9a2 2 0 00-2-2zM24.5 48C11.54 48 1 37.46 1 24.5S11.54 1 24.5 1 48 11.54 48 24.5 37.46 48 24.5 48zm0-46C12.09 2 2 12.09 2 24.5S12.09 47 24.5 47 47 36.91 47 24.5 36.91 2 24.5 2z" fill="#9e9e9e"/></svg>