<svg xmlns="http://www.w3.org/2000/svg" viewBox="0 0 47 48" width="47" height="48">
	<style>
		tspan { white-space:pre }
		.shp0 { fill: #9e9e9e } 
	</style>
	<path id="icon" class="shp0" d="M17.36 16L20 16L20 27.06C20 27.84 19.88 28.54 19.63 29.15C19.38 29.76 19.04 30.28 18.59 30.7C18.15 31.11 17.62 31.44 17.01 31.65C16.4 31.87 15.73 31.98 15.01 31.98C14.28 31.98 13.61 31.89 13 31.7C12.39 31.52 11.86 31.23 11.42 30.84C10.97 30.45 10.63 29.96 10.38 29.36C10.13 28.77 10.01 28.08 10.01 27.28L12.66 27.28C12.66 27.73 12.71 28.12 12.83 28.44C12.95 28.76 13.11 29.02 13.31 29.22C13.52 29.42 13.77 29.56 14.05 29.66C14.34 29.75 14.66 29.8 15.01 29.8C15.35 29.8 15.67 29.74 15.96 29.62C16.24 29.5 16.49 29.32 16.7 29.09C16.91 28.86 17.07 28.58 17.18 28.24C17.3 27.9 17.36 27.51 17.36 27.06L17.36 16ZM32.21 27.77C32.21 27.45 32.16 27.17 32.07 26.93C31.97 26.68 31.8 26.46 31.54 26.25C31.29 26.04 30.94 25.85 30.5 25.66C30.05 25.47 29.48 25.27 28.78 25.06C28.02 24.84 27.31 24.59 26.66 24.31C26.02 24.02 25.46 23.69 24.99 23.31C24.53 22.94 24.16 22.5 23.9 22.01C23.63 21.52 23.5 20.96 23.5 20.32C23.5 19.7 23.64 19.12 23.91 18.59C24.19 18.07 24.58 17.61 25.08 17.23C25.58 16.84 26.17 16.54 26.87 16.33C27.57 16.11 28.34 16.01 29.19 16.01C30.09 16.01 30.91 16.13 31.63 16.39C32.35 16.64 32.96 16.98 33.45 17.42C33.95 17.85 34.33 18.36 34.59 18.93C34.86 19.5 34.99 20.11 34.99 20.76L32.21 20.76C32.21 20.38 32.15 20.04 32.03 19.72C31.91 19.4 31.72 19.13 31.47 18.9C31.22 18.67 30.91 18.49 30.52 18.36C30.14 18.23 29.69 18.17 29.17 18.17C28.68 18.17 28.25 18.22 27.89 18.33C27.53 18.43 27.23 18.58 26.99 18.77C26.75 18.97 26.57 19.19 26.46 19.46C26.35 19.72 26.29 20.01 26.29 20.31C26.29 20.89 26.57 21.37 27.13 21.75C27.69 22.14 28.55 22.5 29.71 22.82C30.61 23.08 31.4 23.36 32.06 23.68C32.72 23.99 33.27 24.34 33.71 24.74C34.14 25.13 34.47 25.58 34.68 26.07C34.9 26.57 35 27.13 35 27.75C35 28.4 34.87 28.99 34.6 29.51C34.33 30.04 33.95 30.48 33.45 30.85C32.96 31.21 32.35 31.5 31.65 31.69C30.94 31.89 30.16 31.98 29.29 31.98C28.52 31.98 27.76 31.88 27.01 31.68C26.26 31.48 25.58 31.17 24.99 30.76C24.39 30.35 23.91 29.84 23.55 29.23C23.18 28.62 23 27.9 23 27.07L25.79 27.07C25.79 27.56 25.88 27.98 26.06 28.34C26.24 28.69 26.49 28.98 26.8 29.2C27.11 29.43 27.48 29.59 27.91 29.69C28.34 29.8 28.8 29.85 29.29 29.85C30.26 29.85 30.99 29.66 31.48 29.28C31.97 28.9 32.21 28.39 32.21 27.77ZM23.5 48C10.54 48 0 37.46 0 24.5C0 11.54 10.54 1 23.5 1C36.46 1 47 11.54 47 24.5C47 37.46 36.46 48 23.5 48ZM23.5 2C11.09 2 1 12.09 1 24.5C1 36.91 11.09 47 23.5 47C35.91 47 46 36.91 46 24.5C46 12.09 35.91 2 23.5 2Z" />
</svg>