<svg xmlns="http://www.w3.org/2000/svg" viewBox="0 0 48 48" width="48" height="48">
	<style>
		tspan { white-space:pre }
		.shp0 { fill: #9e9e9e } 
	</style>
	<path id="Shape 7" class="shp0" d="M15.5 17.99L14.5 17.99C13.12 17.99 12 16.87 12 15.49L12 14.49C12 13.11 13.12 11.99 14.5 11.99L15.5 11.99C16.88 11.99 18 13.11 18 14.49L18 15.49C18 16.87 16.88 17.99 15.5 17.99ZM14.5 12.99C13.67 12.99 13 13.66 13 14.49L13 15.49C13 16.32 13.67 16.99 14.5 16.99L15.5 16.99C16.33 16.99 17 16.32 17 15.49L17 14.49C17 13.66 16.33 12.99 15.5 12.99L14.5 12.99ZM37.01 15.99L21.01 15.99L21.01 13.99L37.01 13.99L37.01 15.99ZM15.5 28L14.5 28C13.12 28 12 26.87 12 25.5L12 24.5C12 23.12 13.12 22 14.5 22L15.5 22C16.88 22 18 23.12 18 24.5L18 25.5C18 26.87 16.88 28 15.5 28ZM14.5 23C13.67 23 13 23.67 13 24.5L13 25.5C13 26.32 13.67 27 14.5 27L15.5 27C16.33 27 17 26.32 17 25.5L17 24.5C17 23.67 16.33 23 15.5 23L14.5 23ZM37.01 26L21.01 26L21.01 24L37.01 24L37.01 26ZM15.5 38L14.5 38C13.12 38 12 36.88 12 35.5L12 34.5C12 33.12 13.12 32 14.5 32L15.5 32C16.88 32 18 33.12 18 34.5L18 35.5C18 36.88 16.88 38 15.5 38ZM14.5 33C13.67 33 13 33.67 13 34.5L13 35.5C13 36.33 13.67 37 14.5 37L15.5 37C16.33 37 17 36.33 17 35.5L17 34.5C17 33.67 16.33 33 15.5 33L14.5 33ZM37.01 36L21.01 36L21.01 34L37.01 34L37.01 36ZM24.5 48C11.54 48 1 37.46 1 24.5C1 11.54 11.54 1 24.5 1C37.46 1 48 11.54 48 24.5C48 37.46 37.46 48 24.5 48ZM24.5 2C12.09 2 2 12.09 2 24.5C2 36.91 12.09 47 24.5 47C36.91 47 47 36.91 47 24.5C47 12.09 36.91 2 24.5 2Z" />
</svg>