<svg xmlns="http://www.w3.org/2000/svg" viewBox="0 0 48 48" width="48" height="48">
	<style>
		tspan { white-space:pre }
		.shp0 { fill: #9e9e9e } 
	</style>
	<path id="icon" class="shp0" d="M34.85 9.31L14.35 11.01C14.33 11.01 14.32 11.02 14.31 11.02L14.17 11.02C13.53 11.02 13 11.53 13 12.15L13 37.87C13 38.5 13.53 39 14.17 39L14.31 39C14.32 39 14.33 39.01 14.35 39.01L14.44 39L33.3 39C33.95 39 34.47 38.5 34.47 37.87L34.47 37.34L34.85 37.31C35.48 37.31 35.99 36.8 35.99 36.18L35.99 10.44C35.99 9.82 35.48 9.31 34.85 9.31ZM32.95 37.87C32.95 37.94 32.88 37.99 32.8 37.99L14.17 37.99C14.09 37.99 14.03 37.94 14.03 37.87L14.03 12.15C14.03 12.08 14.09 12.03 14.17 12.03L32.8 12.03C32.88 12.03 32.95 12.08 32.95 12.15L32.95 37.87ZM34.97 36.18C34.97 36.25 34.91 36.3 34.85 36.3L34.8 36.3L34.76 36.3L33.97 36.33L33.97 12.15C33.97 11.53 33.45 11.02 32.8 11.02L26.9 11.02L34.87 10.32C34.93 10.33 34.97 10.38 34.97 10.44L34.97 36.18ZM28.87 32L18.14 32C17.51 32 17 32.54 17 33.2L17 33.8C17 34.46 17.51 35 18.14 35L28.87 35C29.5 35 30.01 34.46 30.01 33.8L30.01 33.2C30.01 32.54 29.5 32 28.87 32ZM29.01 33.8C29.01 33.91 28.94 34 28.87 34L18.14 34C18.07 34 18 33.91 18 33.8L18 33.2C18 33.08 18.08 33 18.14 33L28.87 33C28.93 33 29.01 33.08 29.01 33.2L29.01 33.8ZM23.5 28C19.91 28 17 25.09 17 21.5C17 17.91 19.91 15 23.5 15C27.09 15 30 17.91 30 21.5C30 25.09 27.09 28 23.5 28ZM23.5 16C20.46 16 18 18.46 18 21.5C18 24.54 20.46 27 23.5 27C26.54 27 29 24.54 29 21.5C29 18.46 26.54 16 23.5 16ZM24.5 48C11.54 48 1 37.46 1 24.5C1 11.54 11.54 1 24.5 1C37.46 1 48 11.54 48 24.5C48 37.46 37.46 48 24.5 48ZM24.5 2C12.09 2 2 12.09 2 24.5C2 36.91 12.09 47 24.5 47C36.91 47 47 36.91 47 24.5C47 12.09 36.91 2 24.5 2Z" />
</svg>