<svg xmlns="http://www.w3.org/2000/svg" viewBox="0 0 48 48" width="48" height="48">
	<style>
		tspan { white-space:pre }
		.shp0 { fill: #9e9e9e } 
	</style>
	<path id="icon" class="shp0" d="M39.02 12.99L23.01 12.99L23.01 10.99L39.02 10.99L39.02 12.99ZM39.02 18.99L23.01 18.99L23.01 16.99L39.02 16.99L39.02 18.99ZM39.02 25L23.01 25L23.01 23L39.02 23L39.02 25ZM39.02 31L10.02 31L10.02 29L39.02 29L39.02 31ZM39.02 37L10.02 37L10.02 35L39.02 35L39.02 37ZM19 11.99C19.55 11.99 20 12.44 20 12.99L20 21.99C20 22.54 19.55 22.99 19 22.99L12 22.99C11.44 22.99 11 22.54 11 21.99L11 12.99C11 12.44 11.44 11.99 12 11.99L19 11.99M19 10.99L12 10.99C10.89 10.99 10 11.88 10 12.99L10 21.99C10 23.09 10.89 23.99 12 23.99L19 23.99C20.1 23.99 21 23.09 21 21.99L21 12.99C21 11.88 20.1 10.99 19 10.99L19 10.99ZM24.5 48C11.54 48 1 37.46 1 24.5C1 11.54 11.54 1 24.5 1C37.46 1 48 11.54 48 24.5C48 37.46 37.46 48 24.5 48ZM24.5 2C12.09 2 2 12.09 2 24.5C2 36.91 12.09 47 24.5 47C36.91 47 47 36.91 47 24.5C47 12.09 36.91 2 24.5 2Z" />
</svg>